<mxfile host="Electron" modified="2024-05-20T18:45:35.542Z" agent="Mozilla/5.0 (X11; Linux x86_64) AppleWebKit/537.36 (KHTML, like Gecko) draw.io/24.4.0 Chrome/120.0.6099.109 Electron/28.1.0 Safari/537.36" etag="fOjr78Tpr7t6tZ9Kewch" version="24.4.0" type="device">
  <diagram name="Page-1" id="FwXqzlP8Zh0WkFYfb6Ny">
    <mxGraphModel dx="1434" dy="870" grid="1" gridSize="10" guides="1" tooltips="1" connect="1" arrows="1" fold="1" page="1" pageScale="1" pageWidth="850" pageHeight="1100" math="0" shadow="0">
      <root>
        <mxCell id="0" />
        <mxCell id="1" parent="0" />
        <mxCell id="RxihSaSmInEO_oKVLUfi-10" value="" style="edgeStyle=orthogonalEdgeStyle;rounded=0;orthogonalLoop=1;jettySize=auto;html=1;entryX=0.5;entryY=0;entryDx=0;entryDy=0;" edge="1" parent="1" source="RxihSaSmInEO_oKVLUfi-3" target="RxihSaSmInEO_oKVLUfi-12">
          <mxGeometry relative="1" as="geometry">
            <mxPoint x="165" y="450" as="targetPoint" />
          </mxGeometry>
        </mxCell>
        <mxCell id="RxihSaSmInEO_oKVLUfi-11" value="&lt;font style=&quot;font-size: 15px;&quot;&gt;&lt;b&gt;Found landing pad&lt;/b&gt;&lt;/font&gt;" style="edgeLabel;html=1;align=center;verticalAlign=middle;resizable=0;points=[];" vertex="1" connectable="0" parent="RxihSaSmInEO_oKVLUfi-10">
          <mxGeometry x="-0.2" y="-2" relative="1" as="geometry">
            <mxPoint as="offset" />
          </mxGeometry>
        </mxCell>
        <mxCell id="RxihSaSmInEO_oKVLUfi-3" value="&lt;font style=&quot;font-size: 18px;&quot;&gt;&lt;b&gt;Fly to next waypoint and check for square&lt;/b&gt;&lt;/font&gt;" style="rounded=1;whiteSpace=wrap;html=1;" vertex="1" parent="1">
          <mxGeometry x="65" y="330" width="210" height="60" as="geometry" />
        </mxCell>
        <mxCell id="RxihSaSmInEO_oKVLUfi-9" value="" style="edgeStyle=orthogonalEdgeStyle;rounded=0;orthogonalLoop=1;jettySize=auto;html=1;" edge="1" parent="1" source="RxihSaSmInEO_oKVLUfi-4" target="RxihSaSmInEO_oKVLUfi-3">
          <mxGeometry relative="1" as="geometry" />
        </mxCell>
        <mxCell id="RxihSaSmInEO_oKVLUfi-4" value="&lt;font style=&quot;font-size: 18px;&quot;&gt;&lt;b&gt;Takeoff&lt;/b&gt;&lt;/font&gt;" style="rounded=1;whiteSpace=wrap;html=1;" vertex="1" parent="1">
          <mxGeometry x="110" y="230" width="120" height="60" as="geometry" />
        </mxCell>
        <mxCell id="RxihSaSmInEO_oKVLUfi-12" value="&lt;b style=&quot;font-size: 18px;&quot;&gt;Descend over platform and land&lt;/b&gt;" style="rounded=1;whiteSpace=wrap;html=1;" vertex="1" parent="1">
          <mxGeometry x="65" y="450" width="210" height="60" as="geometry" />
        </mxCell>
        <mxCell id="RxihSaSmInEO_oKVLUfi-14" value="" style="endArrow=classic;html=1;rounded=0;exitX=1;exitY=0.75;exitDx=0;exitDy=0;entryX=1;entryY=0.25;entryDx=0;entryDy=0;" edge="1" parent="1" source="RxihSaSmInEO_oKVLUfi-3" target="RxihSaSmInEO_oKVLUfi-3">
          <mxGeometry width="50" height="50" relative="1" as="geometry">
            <mxPoint x="380" y="330" as="sourcePoint" />
            <mxPoint x="380" y="310" as="targetPoint" />
            <Array as="points">
              <mxPoint x="340" y="375" />
              <mxPoint x="340" y="345" />
            </Array>
          </mxGeometry>
        </mxCell>
        <mxCell id="RxihSaSmInEO_oKVLUfi-15" value="&lt;font style=&quot;font-size: 15px;&quot;&gt;&lt;b&gt;No landing pad found&lt;/b&gt;&lt;/font&gt;" style="edgeLabel;html=1;align=center;verticalAlign=middle;resizable=0;points=[];" vertex="1" connectable="0" parent="RxihSaSmInEO_oKVLUfi-14">
          <mxGeometry x="-0.575" y="-2" relative="1" as="geometry">
            <mxPoint x="51" y="-17" as="offset" />
          </mxGeometry>
        </mxCell>
      </root>
    </mxGraphModel>
  </diagram>
</mxfile>
